<svg width="50" height="50" viewBox="0 0 50 50" fill="none" xmlns="http://www.w3.org/2000/svg">
<path d="M49.5 24.9998C49.5 38.2967 38.5388 49.09 25 49.09C11.4612 49.09 0.5 38.2967 0.5 24.9998C0.5 11.703 11.4612 0.909668 25 0.909668C38.5388 0.909668 49.5 11.703 49.5 24.9998Z" stroke="white"/>
<path d="M25 11.6377C20.3046 11.6377 16.5 15.3649 16.5 19.9816C16.5 27.9644 25 38.3751 25 38.3751C25 38.3751 33.5 27.9627 33.5 19.9816C33.5 15.3665 29.6954 11.6377 25 11.6377ZM25 24.5984C23.7827 24.5984 22.6152 24.1227 21.7544 23.276C20.8936 22.4294 20.41 21.281 20.41 20.0836C20.41 18.8862 20.8936 17.7379 21.7544 16.8912C22.6152 16.0445 23.7827 15.5689 25 15.5689C26.2173 15.5689 27.3848 16.0445 28.2456 16.8912C29.1064 17.7379 29.59 18.8862 29.59 20.0836C29.59 21.281 29.1064 22.4294 28.2456 23.276C27.3848 24.1227 26.2173 24.5984 25 24.5984Z" fill="white"/>
</svg>
