<svg width="50" height="50" viewBox="0 0 50 50" fill="none" xmlns="http://www.w3.org/2000/svg">
<path d="M49.5 24.9998C49.5 38.2967 38.5388 49.09 25 49.09C11.4612 49.09 0.5 38.2967 0.5 24.9998C0.5 11.703 11.4612 0.909668 25 0.909668C38.5388 0.909668 49.5 11.703 49.5 24.9998Z" stroke="white"/>
<path d="M37.0236 32.1619L31.2649 27.0117C30.9927 26.7683 30.635 26.6385 30.2673 26.6497C29.8996 26.6609 29.5507 26.8122 29.2943 27.0716L25.9042 30.5009C25.0882 30.3476 23.4477 29.8446 21.7591 28.1878C20.0704 26.5254 19.559 24.9076 19.4074 24.1105L22.891 20.7746C23.1551 20.5226 23.3091 20.1794 23.3205 19.8176C23.3318 19.4559 23.1997 19.104 22.9519 18.8364L17.7173 13.1734C17.4695 12.905 17.125 12.7422 16.757 12.7195C16.3891 12.6969 16.0267 12.8162 15.7467 13.0522L12.6726 15.6454C12.4276 15.8872 12.2815 16.209 12.2617 16.5497C12.2405 16.8981 11.8353 25.1501 18.3406 31.5515C24.0158 37.1323 31.1246 37.5405 33.0825 37.5405C33.3686 37.5405 33.5443 37.5322 33.5911 37.5294C33.9375 37.5103 34.2644 37.3659 34.5091 37.1239L37.1441 34.0987C37.3849 33.8243 37.5071 33.4681 37.4846 33.1062C37.4621 32.7443 37.2967 32.4054 37.0236 32.1619Z" fill="white"/>
</svg>
