<svg width="50" height="50" viewBox="0 0 50 50" fill="none" xmlns="http://www.w3.org/2000/svg">
<path d="M49.5 24.9998C49.5 38.2967 38.5388 49.09 25 49.09C11.4612 49.09 0.5 38.2967 0.5 24.9998C0.5 11.703 11.4612 0.909668 25 0.909668C38.5388 0.909668 49.5 11.703 49.5 24.9998Z" stroke="white"/>
<path d="M36.4042 23.606H13.5958C12.8526 23.606 12.25 24.1986 12.25 24.9297V25.0691C12.25 25.8002 12.8526 26.3928 13.5958 26.3928H36.4042C37.1474 26.3928 37.75 25.8002 37.75 25.0691V24.9297C37.75 24.1986 37.1474 23.606 36.4042 23.606Z" fill="white"/>
<path d="M36.4042 30.5732H13.5958C12.8526 30.5732 12.25 31.1659 12.25 31.897V32.0364C12.25 32.7675 12.8526 33.3601 13.5958 33.3601H36.4042C37.1474 33.3601 37.75 32.7675 37.75 32.0364V31.897C37.75 31.1659 37.1474 30.5732 36.4042 30.5732Z" fill="white"/>
<path d="M36.4042 16.6392H13.5958C12.8526 16.6392 12.25 17.2318 12.25 17.9629V18.1023C12.25 18.8334 12.8526 19.426 13.5958 19.426H36.4042C37.1474 19.426 37.75 18.8334 37.75 18.1023V17.9629C37.75 17.2318 37.1474 16.6392 36.4042 16.6392Z" fill="white"/>
</svg>
