<svg width="36" height="35" viewBox="0 0 36 35" fill="none" xmlns="http://www.w3.org/2000/svg">
<path d="M26.2376 17.9259L33.399 21.5476L33.3938 21.5729C33.867 21.7749 34.2825 22.0572 34.6167 22.399C34.9507 22.7405 35.1961 23.1337 35.3423 23.5521C35.4883 23.9703 35.5332 24.408 35.4758 24.8393C35.4184 25.2709 35.259 25.6915 35.0035 26.0748C34.7478 26.4584 34.4007 26.7973 33.98 27.0672C33.5593 27.3372 33.0756 27.5313 32.5585 27.6347C32.0414 27.7382 31.5047 27.7482 30.9825 27.664C30.4604 27.5799 29.9669 27.4037 29.5323 27.1491L29.5198 27.1418L29.5069 27.1352L22.538 23.5769L21.8106 23.2054V24.0222L21.8106 31.2138L21.8106 31.216C21.8129 31.7231 21.6751 32.2269 21.4036 32.686C21.1317 33.1456 20.7323 33.5489 20.233 33.8569C19.7336 34.165 19.1518 34.3668 18.5361 34.4416C17.9204 34.5163 17.2937 34.4611 16.71 34.2818L16.7096 34.2817C15.9323 34.0434 15.2754 33.5992 14.8266 33.0259C14.379 32.4542 14.1603 31.7832 14.1889 31.1102L14.1894 31.0996V31.089V24.0222V23.2067L13.4626 23.5765L6.49374 27.1224L6.49219 27.1232C5.75542 27.5013 4.88799 27.6573 4.02986 27.5606C3.17171 27.4638 2.3852 27.1216 1.79205 26.5999C1.20001 26.0791 0.837239 25.413 0.742627 24.7126C0.648287 24.0142 0.823132 23.3026 1.25178 22.6879C1.60345 22.1984 2.09914 21.7878 2.69741 21.5017L2.69745 21.5018L2.70602 21.4974L9.81858 17.9266L10.7054 17.4814L9.81989 17.0336L2.63549 13.4003L2.62104 13.393L2.60615 13.3866C2.13299 13.1846 1.71752 12.9023 1.3833 12.5605C1.04926 12.219 0.803881 11.8258 0.657749 11.4073C0.511736 10.9892 0.466754 10.5515 0.524187 10.1201C0.581644 9.68859 0.74101 9.26802 0.996484 8.88472C1.25216 8.50111 1.59929 8.16223 2.01995 7.8923C2.4407 7.62232 2.92439 7.42821 3.44151 7.32475C3.95862 7.22129 4.49535 7.21126 5.01747 7.29544C5.5396 7.37962 6.03314 7.55574 6.46773 7.81036L6.48022 7.81767L6.4931 7.82426L13.462 11.3826L14.1894 11.754V10.9373V3.74566C14.1894 2.90934 14.5711 2.09036 15.2799 1.4745C15.9908 0.856704 16.9684 0.5 18 0.5C19.0316 0.5 20.0092 0.856704 20.7201 1.4745C21.4289 2.09036 21.8106 2.90934 21.8106 3.74566V10.9373V11.7571L22.5395 11.3819L29.4509 7.82349L29.4519 7.823C30.1897 7.44113 31.0601 7.28264 31.9216 7.37879C32.7832 7.47495 33.5728 7.81856 34.1675 8.34283C34.761 8.86611 35.1232 9.5356 35.2152 10.2388C35.307 10.9406 35.1272 11.6549 34.6918 12.2702C34.34 12.7603 33.844 13.1714 33.2451 13.4578L33.245 13.4577L33.2336 13.4635L26.236 17.0344L25.3593 17.4818L26.2376 17.9259Z" fill="#FF9900" stroke="black"/>
</svg>
