<svg width="117" height="143" viewBox="0 0 117 143" fill="none" xmlns="http://www.w3.org/2000/svg">
<path fill-rule="evenodd" clip-rule="evenodd" d="M73.2984 32.493C80.9289 32.493 86.7095 32.2367 94.1087 35.3114C99.4269 37.6173 104.283 41.4606 107.982 46.8412C113.069 54.784 116.538 67.3387 117 78.8686V83.7367C117 86.2989 116.538 88.8611 116.075 91.4233C114.225 99.8785 110.526 108.077 106.364 114.995C105.208 116.789 106.595 117.558 107.289 119.351C108.445 123.451 108.213 127.038 106.132 130.369C103.126 135.749 97.5771 140.105 92.2589 141.898C91.1028 142.411 89.4842 142.667 87.6344 142.923H85.5534C84.3972 142.923 83.2411 142.411 82.3162 141.642C81.6225 140.873 80.2352 138.568 80.004 137.543L80.4664 127.55C73.0672 128.063 67.5178 129.087 59.8874 128.319C58.2688 128.063 58.9625 133.443 56.6502 136.005C53.413 139.336 47.6324 140.617 43.4704 140.361C36.5336 140.105 26.3597 133.699 30.0593 124.732C32.834 117.814 41.3893 116.533 34.4526 110.896C31.6779 110.383 26.8221 113.971 22.1976 114.995C17.5731 116.02 13.6423 116.02 9.71146 112.433C3.46838 107.565 0.231225 97.0601 0 86.2989V82.7118C0.231225 73.488 2.54348 64.2641 6.93676 57.3462C13.1798 47.3536 18.498 47.6099 27.9783 45.0477C27.747 40.9482 27.9783 37.1049 27.747 33.0054C27.5158 21.988 27.0534 11.483 33.7589 3.54024C38.8459 -2.09657 43.0079 1.23427 45.7826 7.63974C49.251 15.3263 46.0138 17.1198 44.3953 20.7069C43.7016 21.988 43.2391 23.2691 42.5455 24.8064C40.002 30.4432 38.3834 36.8487 37.2273 43.2541C36.7648 45.5601 35.1462 51.4531 36.996 53.2467C38.1522 54.2716 39.7708 53.7591 40.4644 52.2218C41.6206 49.6596 41.1581 33.0054 54.3379 13.0203C56.8814 8.92084 61.7372 2.77159 66.3617 3.0278C73.0672 3.28402 72.6047 14.5576 71.6798 20.1945C69.3676 35.3114 61.9684 48.891 52.9506 59.3959C52.0257 60.4208 51.1008 61.4457 50.4071 62.4706C49.4822 63.4954 48.3261 64.2641 47.6324 65.289C45.7826 68.1074 48.3261 71.6944 51.332 68.6198C59.8874 59.1397 68.6739 45.0477 73.2984 32.493ZM25.8972 74.0004C26.1285 74.7691 25.8972 79.6372 25.8972 80.9183C25.8972 82.9681 25.4348 84.5054 24.2787 86.0427C23.1225 87.58 21.9664 88.0924 20.1166 88.0924C19.4229 88.0924 14.7984 88.3486 14.5672 88.0924C14.336 87.8362 14.5672 82.4556 14.5672 81.4307C14.336 77.5875 16.8794 74.0004 20.1166 74.0004C21.0415 73.7442 25.4348 73.7442 25.8972 74.0004ZM21.504 76.0501C24.2787 77.075 22.8913 81.4307 20.5791 80.6621C18.0356 79.8934 18.9605 75.2815 21.504 76.0501ZM29.5968 69.3885C29.5968 74.7691 29.8281 84.7616 27.0534 89.1173C25.2036 92.1919 23.1225 92.1919 20.3478 92.4481H10.8676C10.8676 87.3238 10.6364 76.8188 13.4111 72.7193C15.0296 70.1571 17.5731 69.3885 20.1166 69.3885C23.3538 69.3885 26.3597 69.3885 29.5968 69.3885Z" fill="#C3C3C3"/>
</svg>
