<svg width="101" height="104" viewBox="0 0 101 104" fill="none" xmlns="http://www.w3.org/2000/svg">
<path fill-rule="evenodd" clip-rule="evenodd" d="M62.0602 18.8924C83.6325 18.8924 101 37.9683 101 61.4462C101 84.9242 83.6325 104 62.0602 104C57.4898 104 53.285 103.083 49.263 101.616C69.9213 95.746 78.8792 90.06 82.1699 75.2028H55.296C53.8334 69.8836 61.1461 67.866 65.5337 67.866C70.4697 67.866 65.3509 66.3986 65.3509 60.3457C65.3509 56.3104 66.6306 51.7249 68.8244 48.6067C68.4587 48.4233 68.2759 48.2399 67.9103 48.0564C57.3069 42.3704 38.2941 51.1746 25.3141 67.6825C23.3031 70.2504 21.6578 72.8183 20.1953 75.2028H13.9795C16.1733 69.5168 17.0874 64.381 15.8077 63.2804C14.528 61.9965 11.2373 66.0317 8.49503 72.0847C8.1294 73.1852 7.58095 74.1023 7.21532 75.0194H0.451122V74.4691C6.30124 66.9489 9.95756 55.2099 9.95756 44.7549C9.95756 34.4832 7.39814 28.6138 3.74181 21.8272C1.91365 19.6261 0.816754 15.0406 0.268306 11.5556C-0.828591 5.50265 1.54802 0.183422 5.38716 0.183422C7.21532 0.183422 9.04348 1.28395 10.506 3.30159C12.6998 1.83422 15.2592 0.917108 18.0015 0.917108C20.7437 0.917108 23.3031 1.83422 25.4969 3.11817C26.9595 1.28395 28.7876 0 30.6158 0C34.4549 0 36.8315 5.31922 35.9175 11.9224C34.2721 22.7443 30.6158 18.8924 30.6158 36.134C37.9284 25.679 49.263 18.8924 62.0602 18.8924ZM17.6358 17.9753C16.9046 17.9753 16.3561 18.1587 15.8077 18.5256C14.528 19.2593 14.8936 19.6261 15.442 19.9929C15.9905 20.3598 17.0874 20.5432 17.0874 21.6437C17.0874 22.0106 17.453 22.194 17.8187 22.194C18.1843 22.194 18.3671 22.0106 18.3671 21.6437C18.3671 19.8095 22.0234 19.9929 19.2812 18.5256C18.9156 18.1587 18.1843 17.9753 17.6358 17.9753ZM18.9156 13.0229C20.7437 13.2064 20.7437 11.739 22.9375 11.1887C24.0344 10.8219 25.1313 11.0053 26.0454 11.3721C27.8735 12.1058 29.3361 14.1235 29.3361 16.8748C29.3361 19.4427 27.1423 21.6437 24.4 22.7443C24.5829 22.194 24.5829 21.6437 24.5829 21.0935C24.5829 17.7919 21.475 15.0406 17.8187 15.0406C14.1623 15.0406 11.0545 17.7919 11.0545 21.0935C11.0545 21.6437 11.0545 22.0106 11.2373 22.5608C8.67785 21.4603 6.66687 19.2593 6.66687 16.8748C6.66687 14.1235 8.1294 12.1058 9.95756 11.3721C10.8716 11.0053 11.9685 10.8219 13.0654 11.1887C15.2592 11.739 15.2592 13.3898 17.0874 13.0229C17.6358 13.0229 18.3671 13.0229 18.9156 13.0229ZM32.2611 15.5908C32.2611 15.7743 32.2611 15.7743 32.2611 15.9577C32.0783 19.6261 29.3361 22.5608 26.5938 24.7619C24.7657 26.0459 20.9265 28.2469 18.7327 28.2469C15.6249 28.4303 11.9685 26.5961 9.40911 24.7619C6.66687 22.7443 3.92463 19.6261 3.74181 15.9577C3.74181 15.7743 3.74181 15.7743 3.74181 15.5908C3.74181 12.2892 4.65589 9.3545 6.84969 7.88713C7.58095 7.15344 8.49503 6.7866 9.59193 6.60317C10.6888 6.41975 11.7857 6.41975 12.6998 6.60317C13.7967 6.7866 14.8936 7.15344 15.6249 7.88713C17.0874 8.80423 18.3671 8.98765 20.0125 7.88713C20.9265 7.33686 22.0234 6.7866 22.9375 6.60317C25.1313 6.05291 27.3251 6.23633 28.9704 7.7037C31.1642 9.3545 32.2611 12.1058 32.2611 15.5908Z" fill="#607490"/>
</svg>
